<svg width="232" height="30" viewBox="0 0 232 30" fill="none" xmlns="http://www.w3.org/2000/svg">
    <path d="M25.0547 14.1562V15.4258C25.0547 17.5872 24.7552 19.5273 24.1562 21.2461C23.5703 22.9648 22.7305 24.4297 21.6367 25.6406C20.556 26.8516 19.2669 27.7826 17.7695 28.4336C16.2852 29.0716 14.638 29.3906 12.8281 29.3906C11.0182 29.3906 9.36458 29.0716 7.86719 28.4336C6.36979 27.7826 5.06771 26.8516 3.96094 25.6406C2.86719 24.4297 2.02083 22.9648 1.42188 21.2461C0.822917 19.5273 0.523438 17.5872 0.523438 15.4258V14.1562C0.523438 11.9948 0.822917 10.0547 1.42188 8.33594C2.02083 6.60417 2.86068 5.13281 3.94141 3.92188C5.03516 2.71094 6.33073 1.78646 7.82812 1.14844C9.32552 0.497396 10.9792 0.171875 12.7891 0.171875C14.599 0.171875 16.2526 0.497396 17.75 1.14844C19.2474 1.78646 20.5365 2.71094 21.6172 3.92188C22.7109 5.13281 23.5573 6.60417 24.1562 8.33594C24.7552 10.0547 25.0547 11.9948 25.0547 14.1562ZM18.6289 15.4258V14.1172C18.6289 12.6719 18.4987 11.3958 18.2383 10.2891C17.9779 9.16927 17.6003 8.23177 17.1055 7.47656C16.6107 6.72135 15.9987 6.15495 15.2695 5.77734C14.5404 5.38672 13.7135 5.19141 12.7891 5.19141C11.8255 5.19141 10.9857 5.38672 10.2695 5.77734C9.55339 6.15495 8.94792 6.72135 8.45312 7.47656C7.97135 8.23177 7.60026 9.16927 7.33984 10.2891C7.09245 11.3958 6.96875 12.6719 6.96875 14.1172V15.4258C6.96875 16.8581 7.09245 18.1341 7.33984 19.2539C7.60026 20.3607 7.97786 21.2982 8.47266 22.0664C8.96745 22.8346 9.57292 23.4141 10.2891 23.8047C11.0182 24.1953 11.8646 24.3906 12.8281 24.3906C13.7526 24.3906 14.5729 24.1953 15.2891 23.8047C16.0182 23.4141 16.6302 22.8346 17.125 22.0664C17.6198 21.2982 17.9909 20.3607 18.2383 19.2539C18.4987 18.1341 18.6289 16.8581 18.6289 15.4258ZM44.5273 0.5625H50.8945V19.2344C50.8945 21.4479 50.4258 23.3099 49.4883 24.8203C48.5638 26.3307 47.2747 27.4701 45.6211 28.2383C43.9674 29.0065 42.0534 29.3906 39.8789 29.3906C37.6914 29.3906 35.7643 29.0065 34.0977 28.2383C32.444 27.4701 31.1419 26.3307 30.1914 24.8203C29.2539 23.3099 28.7852 21.4479 28.7852 19.2344V0.5625H35.1719V19.2344C35.1719 20.4583 35.3542 21.4609 35.7188 22.2422C36.0964 23.0104 36.6367 23.5768 37.3398 23.9414C38.043 24.293 38.8893 24.4688 39.8789 24.4688C40.8685 24.4688 41.7083 24.293 42.3984 23.9414C43.1016 23.5768 43.6289 23.0104 43.9805 22.2422C44.3451 21.4609 44.5273 20.4583 44.5273 19.2344V0.5625ZM55.4453 0.5625H66.3633C68.5378 0.5625 70.4193 0.888021 72.0078 1.53906C73.6094 2.1901 74.8398 3.15365 75.6992 4.42969C76.5586 5.70573 76.9883 7.28125 76.9883 9.15625C76.9883 10.7188 76.7344 12.0469 76.2266 13.1406C75.7188 14.2344 75.0026 15.1393 74.0781 15.8555C73.1667 16.5716 72.099 17.151 70.875 17.5938L68.8047 18.7266H59.5078L59.4688 13.7852H66.3828C67.3333 13.7852 68.1211 13.6159 68.7461 13.2773C69.3711 12.9388 69.8398 12.4635 70.1523 11.8516C70.4779 11.2266 70.6406 10.4974 70.6406 9.66406C70.6406 8.80469 70.4779 8.0625 70.1523 7.4375C69.8268 6.8125 69.3451 6.33724 68.707 6.01172C68.082 5.67318 67.3008 5.50391 66.3633 5.50391H61.8125V29H55.4453V0.5625ZM71.1875 29L64.8008 16.3633L71.5195 16.3438L78.0039 28.707V29H71.1875ZM138.922 0.5625V29H132.555V0.5625H138.922ZM150.113 12.5547V17.4766H137.145V12.5547H150.113ZM151.363 0.5625V5.50391H137.145V0.5625H151.363ZM178.18 14.1562V15.4258C178.18 17.5872 177.88 19.5273 177.281 21.2461C176.695 22.9648 175.855 24.4297 174.762 25.6406C173.681 26.8516 172.392 27.7826 170.895 28.4336C169.41 29.0716 167.763 29.3906 165.953 29.3906C164.143 29.3906 162.49 29.0716 160.992 28.4336C159.495 27.7826 158.193 26.8516 157.086 25.6406C155.992 24.4297 155.146 22.9648 154.547 21.2461C153.948 19.5273 153.648 17.5872 153.648 15.4258V14.1562C153.648 11.9948 153.948 10.0547 154.547 8.33594C155.146 6.60417 155.986 5.13281 157.066 3.92188C158.16 2.71094 159.456 1.78646 160.953 1.14844C162.451 0.497396 164.104 0.171875 165.914 0.171875C167.724 0.171875 169.378 0.497396 170.875 1.14844C172.372 1.78646 173.661 2.71094 174.742 3.92188C175.836 5.13281 176.682 6.60417 177.281 8.33594C177.88 10.0547 178.18 11.9948 178.18 14.1562ZM171.754 15.4258V14.1172C171.754 12.6719 171.624 11.3958 171.363 10.2891C171.103 9.16927 170.725 8.23177 170.23 7.47656C169.736 6.72135 169.124 6.15495 168.395 5.77734C167.665 5.38672 166.839 5.19141 165.914 5.19141C164.951 5.19141 164.111 5.38672 163.395 5.77734C162.678 6.15495 162.073 6.72135 161.578 7.47656C161.096 8.23177 160.725 9.16927 160.465 10.2891C160.217 11.3958 160.094 12.6719 160.094 14.1172V15.4258C160.094 16.8581 160.217 18.1341 160.465 19.2539C160.725 20.3607 161.103 21.2982 161.598 22.0664C162.092 22.8346 162.698 23.4141 163.414 23.8047C164.143 24.1953 164.99 24.3906 165.953 24.3906C166.878 24.3906 167.698 24.1953 168.414 23.8047C169.143 23.4141 169.755 22.8346 170.25 22.0664C170.745 21.2982 171.116 20.3607 171.363 19.2539C171.624 18.1341 171.754 16.8581 171.754 15.4258ZM205.797 14.1562V15.4258C205.797 17.5872 205.497 19.5273 204.898 21.2461C204.312 22.9648 203.473 24.4297 202.379 25.6406C201.298 26.8516 200.009 27.7826 198.512 28.4336C197.027 29.0716 195.38 29.3906 193.57 29.3906C191.76 29.3906 190.107 29.0716 188.609 28.4336C187.112 27.7826 185.81 26.8516 184.703 25.6406C183.609 24.4297 182.763 22.9648 182.164 21.2461C181.565 19.5273 181.266 17.5872 181.266 15.4258V14.1562C181.266 11.9948 181.565 10.0547 182.164 8.33594C182.763 6.60417 183.603 5.13281 184.684 3.92188C185.777 2.71094 187.073 1.78646 188.57 1.14844C190.068 0.497396 191.721 0.171875 193.531 0.171875C195.341 0.171875 196.995 0.497396 198.492 1.14844C199.99 1.78646 201.279 2.71094 202.359 3.92188C203.453 5.13281 204.299 6.60417 204.898 8.33594C205.497 10.0547 205.797 11.9948 205.797 14.1562ZM199.371 15.4258V14.1172C199.371 12.6719 199.241 11.3958 198.98 10.2891C198.72 9.16927 198.342 8.23177 197.848 7.47656C197.353 6.72135 196.741 6.15495 196.012 5.77734C195.283 5.38672 194.456 5.19141 193.531 5.19141C192.568 5.19141 191.728 5.38672 191.012 5.77734C190.296 6.15495 189.69 6.72135 189.195 7.47656C188.714 8.23177 188.342 9.16927 188.082 10.2891C187.835 11.3958 187.711 12.6719 187.711 14.1172V15.4258C187.711 16.8581 187.835 18.1341 188.082 19.2539C188.342 20.3607 188.72 21.2982 189.215 22.0664C189.71 22.8346 190.315 23.4141 191.031 23.8047C191.76 24.1953 192.607 24.3906 193.57 24.3906C194.495 24.3906 195.315 24.1953 196.031 23.8047C196.76 23.4141 197.372 22.8346 197.867 22.0664C198.362 21.2982 198.733 20.3607 198.98 19.2539C199.241 18.1341 199.371 16.8581 199.371 15.4258ZM218.707 29H212.457L212.496 24.0781H218.707C220.126 24.0781 221.324 23.7526 222.301 23.1016C223.277 22.4375 224.02 21.4609 224.527 20.1719C225.035 18.8698 225.289 17.2878 225.289 15.4258V14.1172C225.289 12.7109 225.146 11.474 224.859 10.4062C224.573 9.32552 224.15 8.42057 223.59 7.69141C223.03 6.96224 222.333 6.41536 221.5 6.05078C220.68 5.6862 219.736 5.50391 218.668 5.50391H212.34V0.5625H218.668C220.595 0.5625 222.353 0.888021 223.941 1.53906C225.543 2.1901 226.923 3.12109 228.082 4.33203C229.254 5.54297 230.159 6.97526 230.797 8.62891C231.435 10.2826 231.754 12.125 231.754 14.1562V15.4258C231.754 17.444 231.435 19.2865 230.797 20.9531C230.159 22.6068 229.254 24.0391 228.082 25.25C226.923 26.4479 225.549 27.3724 223.961 28.0234C222.372 28.6745 220.621 29 218.707 29ZM216.07 0.5625V29H209.703V0.5625H216.07Z" fill="#565656"/>
    <path d="M99.8594 24.0781V29H85.5039V24.0781H99.8594ZM87.6719 0.5625V29H81.3047V0.5625H87.6719ZM102.184 0.5625L107.75 13.2188L113.355 0.5625H120.23L110.992 18.7266V29H104.527V18.7266L95.2695 0.5625H102.184Z" fill="#87AE95"/>
</svg>
